<?xml version="1.0" encoding="UTF-8"?>
<!DOCTYPE svg PUBLIC "-//W3C//DTD SVG 1.1//EN" "http://www.w3.org/Graphics/SVG/1.1/DTD/svg11.dtd">
<svg version="1.1" xmlns="http://www.w3.org/2000/svg" xmlns:xlink="http://www.w3.org/1999/xlink" x="0" y="0" height="200" width="641" viewBox="0, 0, 188.164, 230.745">
  <g id="Layer_1">
    <g id="path2354">
      <path d="M2.254,170.343 C1.236,181.349 1.266,221.06 2.241,225.416 C3.148,229.466 4.106,227.804 6.595,229.676 C9.25,228.958 12.013,228.152 14.779,229.278 C19.971,229.441 24.112,229.822 29.223,228.856 C31.998,229.931 34.963,231.239 37.8,229.045 C42.372,224.853 40.178,210.011 40.73,201.367 C40.727,187.385 40.975,179.522 40.667,171.219 C41.073,167.264 41.337,168.54 40.261,162.655 C35.567,162.262 29.061,161.906 25.262,161.093 C22.182,161.531 17.331,161.03 14.005,160.797 C10.528,159.643 7.346,161.711 4.525,162.515 C1.289,162.387 3.273,159.337 2.254,170.343 z" fill="#000000"/>
      <path d="M2.254,170.343 C1.236,181.349 1.266,221.06 2.241,225.416 C3.148,229.466 4.106,227.804 6.595,229.676 C9.25,228.958 12.013,228.152 14.779,229.278 C19.971,229.441 24.112,229.822 29.223,228.856 C31.998,229.931 34.963,231.239 37.8,229.045 C42.372,224.853 40.178,210.011 40.73,201.367 C40.727,187.385 40.975,179.522 40.667,171.219 C41.073,167.264 41.337,168.54 40.261,162.655 C35.567,162.262 29.061,161.906 25.262,161.093 C22.182,161.531 17.331,161.03 14.005,160.797 C10.528,159.643 7.346,161.711 4.525,162.515 C1.289,162.387 3.273,159.337 2.254,170.343 z" fill-opacity="0" stroke="#000000" stroke-width="0.699"/>
    </g>
    <g id="path2358">
      <path d="M40.275,53.328 C42.95,53.593 46.26,53.18 48.939,53.246 C49.606,57.916 50.918,88.895 48.277,104.147 C43.243,107.224 36.326,105.39 33.287,104.042 C22.771,102.556 17.763,104.22 7.232,103.617 C5.733,102.219 4.16,97.985 4.814,95.719 C5.257,83.644 4.287,76.755 5.279,66.345 C5.516,63.242 3.774,55.832 5.567,53.944 C7.285,52.734 9.197,53.604 11.003,53.616 C14.242,54.172 17.493,55.372 20.747,54.675 C27.263,54.427 33.74,52.711 40.275,53.328 z" fill="#000000"/>
      <path d="M40.275,53.328 C42.95,53.593 46.26,53.18 48.939,53.246 C49.606,57.916 50.918,88.895 48.277,104.147 C43.243,107.224 36.326,105.39 33.287,104.042 C22.771,102.556 17.763,104.22 7.232,103.617 C5.733,102.219 4.16,97.985 4.814,95.719 C5.257,83.644 4.287,76.755 5.279,66.345 C5.516,63.242 3.774,55.832 5.567,53.944 C7.285,52.734 9.197,53.604 11.003,53.616 C14.242,54.172 17.493,55.372 20.747,54.675 C27.263,54.427 33.74,52.711 40.275,53.328 z" fill-opacity="0" stroke="#000000" stroke-width="0.66"/>
    </g>
    <g id="path2362">
      <path d="M59.138,161.559 C53.033,163.672 50.426,156.222 45.859,164.322 C42.023,175.338 46.192,179.941 44.635,203.007 C44.85,209.947 42.916,219.119 46.001,225.165 C48.064,228.394 54.803,227.531 58.031,226.939 C79.284,231.374 104.56,226.938 126.985,230.245 C131.346,229.974 134.537,228.387 138.804,227.264 C142.636,217.318 140.516,206.245 140.324,195.802 C140.793,186.623 145.343,170.298 140.91,162.282 C133.964,161.085 132.133,160.841 129.217,161.397 C113.766,161.999 98.522,162.151 83.062,163.084 C78.053,162.611 72.887,162.861 68.134,160.619 C67.534,160.478 59.754,161.533 59.138,161.559 z" fill="#000000"/>
      <path d="M59.138,161.559 C53.033,163.672 50.426,156.222 45.859,164.322 C42.023,175.338 46.192,179.941 44.635,203.007 C44.85,209.947 42.916,219.119 46.001,225.165 C48.064,228.394 54.803,227.531 58.031,226.939 C79.284,231.374 104.56,226.938 126.985,230.245 C131.346,229.974 134.537,228.387 138.804,227.264 C142.636,217.318 140.516,206.245 140.324,195.802 C140.793,186.623 145.343,170.298 140.91,162.282 C133.964,161.085 132.133,160.841 129.217,161.397 C113.766,161.999 98.522,162.151 83.062,163.084 C78.053,162.611 72.887,162.861 68.134,160.619 C67.534,160.478 59.754,161.533 59.138,161.559 z" fill-opacity="0" stroke="#000000" stroke-width="0.359"/>
    </g>
    <g id="path2364">
      <path d="M6.983,158.54 C21.485,158.819 35.993,159.591 50.49,158.885 C61.832,158.994 73.168,159.631 84.51,159.398 C88.942,160.027 96.492,162.334 98.391,157.226 C97.848,148.527 97.514,139.832 98.11,131.127 C98.365,124.08 98.683,117.032 98.707,109.981 C93.769,107.469 87.47,107.228 81.919,107.675 C68.468,107.18 59.841,106.462 48.616,108.336 C42.92,107.32 36.404,107.295 30.874,109.428 C25.2,109.589 19.574,108.471 13.873,108.948 C5.445,108.528 8.054,117.312 7.306,121.839 C5.973,128.261 5.573,134.699 5.857,141.229 C5.45,146.925 2.814,153.375 6.983,158.54 z" fill="#000000"/>
      <path d="M6.983,158.54 C21.485,158.819 35.993,159.591 50.49,158.885 C61.832,158.994 73.168,159.631 84.51,159.398 C88.942,160.027 96.492,162.334 98.391,157.226 C97.848,148.527 97.514,139.832 98.11,131.127 C98.365,124.08 98.683,117.032 98.707,109.981 C93.769,107.469 87.47,107.228 81.919,107.675 C68.468,107.18 59.841,106.462 48.616,108.336 C42.92,107.32 36.404,107.295 30.874,109.428 C25.2,109.589 19.574,108.471 13.873,108.948 C5.445,108.528 8.054,117.312 7.306,121.839 C5.973,128.261 5.573,134.699 5.857,141.229 C5.45,146.925 2.814,153.375 6.983,158.54 z" fill-opacity="0" stroke="#000000" stroke-width="0.597"/>
    </g>
    <g id="path2366">
      <path d="M111.807,160.192 C118.513,160.403 125.263,160.828 131.923,159.822 C136.802,159.741 141.752,160.259 146.554,159.163 C151.172,159.058 171.054,160.644 175.665,159.877 C189.986,162.696 186.33,146.887 186.688,133.491 C186.944,128.52 188.284,123.639 187.319,118.778 C186.956,115.275 187.434,111.736 186.94,108.242 C183.438,106.544 179.939,106.416 176.307,105.88 C167.448,105.907 148.216,107.427 139.367,107.431 C135.395,107.811 128.915,108.956 124.929,108.275 C120.226,107.738 115.528,108.475 110.833,108.459 C107.178,108.21 100.652,106.971 101.139,112.61 C101.034,119.256 101.717,125.89 101.646,132.534 C101.152,137.883 99.86,143.429 101.81,148.657 C103.395,152.279 99.74,158.669 104.268,160.335 C106.796,160.485 109.277,159.759 111.807,160.192 z" fill="#000000"/>
      <path d="M111.807,160.192 C118.513,160.403 125.263,160.828 131.923,159.822 C136.802,159.741 141.752,160.259 146.554,159.163 C151.172,159.058 171.054,160.644 175.665,159.877 C189.986,162.696 186.33,146.887 186.688,133.491 C186.944,128.52 188.284,123.639 187.319,118.778 C186.956,115.275 187.434,111.736 186.94,108.242 C183.438,106.544 179.939,106.416 176.307,105.88 C167.448,105.907 148.216,107.427 139.367,107.431 C135.395,107.811 128.915,108.956 124.929,108.275 C120.226,107.738 115.528,108.475 110.833,108.459 C107.178,108.21 100.652,106.971 101.139,112.61 C101.034,119.256 101.717,125.89 101.646,132.534 C101.152,137.883 99.86,143.429 101.81,148.657 C103.395,152.279 99.74,158.669 104.268,160.335 C106.796,160.485 109.277,159.759 111.807,160.192 z" fill-opacity="0" stroke="#000000" stroke-width="0.591"/>
    </g>
    <g id="path2368">
      <path d="M53.901,104.964 L62.79,104.829 C64.922,104.896 67.055,104.963 69.187,105.029 C75.584,105.23 81.981,105.43 88.378,105.631 C95.001,105.838 100.648,104.602 107.605,104.82 C115.795,105.077 121.305,106.798 128.461,105.06 C135.072,103.455 128.777,105.888 135.404,104.279 C142.836,102.474 138.236,93.751 138.471,84.594 C138.666,77.051 136.239,71.847 136.421,64.75 C136.669,55.14 139.454,55.204 135.505,50.592 C133.55,48.308 131.404,49.051 128.249,48.952 C121.377,48.736 115.401,49.962 109.022,49.762 C102.54,49.559 97.024,50.713 90.249,50.501 C83.853,50.301 77.003,50.086 70.606,49.885 C63.82,49.673 60.316,49.681 54.083,51.194 C49.618,52.278 51.65,71.28 52.075,73.41 C53.311,79.609 51.694,88.203 51.53,94.586 C51.416,99.028 49.263,103.681 53.901,104.964 z" fill="#000000"/>
      <path d="M53.901,104.964 L62.79,104.829 C64.922,104.896 67.055,104.963 69.187,105.029 C75.584,105.23 81.981,105.43 88.378,105.631 C95.001,105.838 100.648,104.602 107.605,104.82 C115.795,105.077 121.305,106.798 128.461,105.06 C135.072,103.455 128.777,105.888 135.404,104.279 C142.836,102.474 138.236,93.751 138.471,84.594 C138.666,77.051 136.239,71.847 136.421,64.75 C136.669,55.14 139.454,55.204 135.505,50.592 C133.55,48.308 131.404,49.051 128.249,48.952 C121.377,48.736 115.401,49.962 109.022,49.762 C102.54,49.559 97.024,50.713 90.249,50.501 C83.853,50.301 77.003,50.086 70.606,49.885 C63.82,49.673 60.316,49.681 54.083,51.194 C49.618,52.278 51.65,71.28 52.075,73.41 C53.311,79.609 51.694,88.203 51.53,94.586 C51.416,99.028 49.263,103.681 53.901,104.964 z" fill-opacity="0" stroke="#000000" stroke-width="0.585"/>
    </g>
    <g id="path2370">
      <path d="M7.131,48.028 C13.579,48.678 29.864,47.541 39.195,47.754 C48.86,47.975 53.747,46.664 63.99,46.898 C73.793,47.122 80.619,47.278 88.734,47.463 C94.637,47.598 102.038,51.08 111.755,46.739 C112.582,46.369 112.546,24.325 112.614,22.399 C112.899,14.334 112.233,8.165 109.732,3.838 C87.591,-0.011 58.578,1.621 35.449,3.564 C27.92,4.896 15.934,1.407 10.065,3.401 C3.934,5.483 6.185,24.738 6.117,26.664 C5.807,35.437 2.448,46.438 7.131,48.028 z" fill="#000000"/>
      <path d="M7.131,48.028 C13.579,48.678 29.864,47.541 39.195,47.754 C48.86,47.975 53.747,46.664 63.99,46.898 C73.793,47.122 80.619,47.278 88.734,47.463 C94.637,47.598 102.038,51.08 111.755,46.739 C112.582,46.369 112.546,24.325 112.614,22.399 C112.899,14.334 112.233,8.165 109.732,3.838 C87.591,-0.011 58.578,1.621 35.449,3.564 C27.92,4.896 15.934,1.407 10.065,3.401 C3.934,5.483 6.185,24.738 6.117,26.664 C5.807,35.437 2.448,46.438 7.131,48.028 z" fill-opacity="0" stroke="#000000" stroke-width="0.585"/>
    </g>
    <g id="path2372">
      <path d="M116.22,47.257 C129.299,47.805 142.405,47.628 155.478,47.643 C163.62,48.332 171.537,46.354 179.62,46.253 C188.024,44.114 185.458,34.11 186.764,28.346 C187.835,21.981 188.102,15.365 186.72,9.055 C187.145,2.988 179.197,5.064 173.843,5.331 C157.753,3.397 141.404,2.335 125.344,3.815 C119.194,2.04 111.765,5.125 114.703,11.387 C115.678,19.328 116.223,27.294 115.364,35.265 C115.271,39.245 114.978,43.387 116.22,47.257 z" fill="#000000"/>
      <path d="M116.22,47.257 C129.299,47.805 142.405,47.628 155.478,47.643 C163.62,48.332 171.537,46.354 179.62,46.253 C188.024,44.114 185.458,34.11 186.764,28.346 C187.835,21.981 188.102,15.365 186.72,9.055 C187.145,2.988 179.197,5.064 173.843,5.331 C157.753,3.397 141.404,2.335 125.344,3.815 C119.194,2.04 111.765,5.125 114.703,11.387 C115.678,19.328 116.223,27.294 115.364,35.265 C115.271,39.245 114.978,43.387 116.22,47.257 z" fill-opacity="0" stroke="#000000" stroke-width="0.585"/>
    </g>
  </g>
</svg>
